# xmcd
#
# Track frame offsets:
#	182
#	13795
#	27420
#
# Disc length: 546 seconds
#
# Revision: 1
# Processed by: cddbd v1.5.1PL2 Copyright (c) Steve Scherf et al.
# Submitted via: dBpowerAMP V4.0
#
DISCID=1c022003
DTITLE=Toby Keith - Greatest Hits Vol. 1
DYEAR=1999
DGENRE=Country
TTITLE0=If A Man Answers
TTITLE1=If A Man Answers
TTITLE2=If A Man Answers
EXTD=
EXTT0=
EXTT1=
EXTT2=
PLAYORDER=
